<svg width="14" height="14" viewBox="0 0 14 14" fill="none" xmlns="http://www.w3.org/2000/svg">
<path d="M6.29998 1.40039C6.11432 1.40039 5.93628 1.47414 5.805 1.60542C5.67373 1.73669 5.59998 1.91474 5.59998 2.10039C5.59998 2.28604 5.67373 2.46409 5.805 2.59537C5.93628 2.72664 6.11432 2.80039 6.29998 2.80039H7.69998C7.88563 2.80039 8.06367 2.72664 8.19495 2.59537C8.32623 2.46409 8.39998 2.28604 8.39998 2.10039C8.39998 1.91474 8.32623 1.73669 8.19495 1.60542C8.06367 1.47414 7.88563 1.40039 7.69998 1.40039H6.29998Z" fill="#3F83F8"/>
<path fill-rule="evenodd" clip-rule="evenodd" d="M2.80005 3.49961C2.80005 3.12831 2.94755 2.77221 3.2101 2.50966C3.47265 2.24711 3.82875 2.09961 4.20005 2.09961C4.20005 2.65656 4.4213 3.19071 4.81512 3.58453C5.20895 3.97836 5.74309 4.19961 6.30005 4.19961H7.70005C8.257 4.19961 8.79115 3.97836 9.18497 3.58453C9.5788 3.19071 9.80005 2.65656 9.80005 2.09961C10.1714 2.09961 10.5274 2.24711 10.79 2.50966C11.0525 2.77221 11.2 3.12831 11.2 3.49961V11.1996C11.2 11.5709 11.0525 11.927 10.79 12.1896C10.5274 12.4521 10.1714 12.5996 9.80005 12.5996H4.20005C3.82875 12.5996 3.47265 12.4521 3.2101 12.1896C2.94755 11.927 2.80005 11.5709 2.80005 11.1996V3.49961ZM4.90005 6.29961C4.7144 6.29961 4.53635 6.37336 4.40507 6.50463C4.2738 6.63591 4.20005 6.81396 4.20005 6.99961C4.20005 7.18526 4.2738 7.36331 4.40507 7.49458C4.53635 7.62586 4.7144 7.69961 4.90005 7.69961H4.90705C5.0927 7.69961 5.27075 7.62586 5.40202 7.49458C5.5333 7.36331 5.60705 7.18526 5.60705 6.99961C5.60705 6.81396 5.5333 6.63591 5.40202 6.50463C5.27075 6.37336 5.0927 6.29961 4.90705 6.29961H4.90005ZM7.00005 6.29961C6.8144 6.29961 6.63635 6.37336 6.50507 6.50463C6.3738 6.63591 6.30005 6.81396 6.30005 6.99961C6.30005 7.18526 6.3738 7.36331 6.50507 7.49458C6.63635 7.62586 6.8144 7.69961 7.00005 7.69961H9.10005C9.2857 7.69961 9.46375 7.62586 9.59502 7.49458C9.7263 7.36331 9.80005 7.18526 9.80005 6.99961C9.80005 6.81396 9.7263 6.63591 9.59502 6.50463C9.46375 6.37336 9.2857 6.29961 9.10005 6.29961H7.00005ZM4.90005 9.09961C4.7144 9.09961 4.53635 9.17336 4.40507 9.30463C4.2738 9.43591 4.20005 9.61396 4.20005 9.79961C4.20005 9.98526 4.2738 10.1633 4.40507 10.2946C4.53635 10.4259 4.7144 10.4996 4.90005 10.4996H4.90705C5.0927 10.4996 5.27075 10.4259 5.40202 10.2946C5.5333 10.1633 5.60705 9.98526 5.60705 9.79961C5.60705 9.61396 5.5333 9.43591 5.40202 9.30463C5.27075 9.17336 5.0927 9.09961 4.90705 9.09961H4.90005ZM7.00005 9.09961C6.8144 9.09961 6.63635 9.17336 6.50507 9.30463C6.3738 9.43591 6.30005 9.61396 6.30005 9.79961C6.30005 9.98526 6.3738 10.1633 6.50507 10.2946C6.63635 10.4259 6.8144 10.4996 7.00005 10.4996H9.10005C9.2857 10.4996 9.46375 10.4259 9.59502 10.2946C9.7263 10.1633 9.80005 9.98526 9.80005 9.79961C9.80005 9.61396 9.7263 9.43591 9.59502 9.30463C9.46375 9.17336 9.2857 9.09961 9.10005 9.09961H7.00005Z" fill="#3F83F8"/>
</svg>
