<svg width="20" height="21" viewBox="0 0 20 21" fill="none" xmlns="http://www.w3.org/2000/svg">
<g id="chevron-left">
<path id="Vector" fill-rule="evenodd" clip-rule="evenodd" d="M12.707 5.79303C12.8945 5.98056 12.9998 6.23487 12.9998 6.50003C12.9998 6.76519 12.8945 7.0195 12.707 7.20703L9.41403 10.5L12.707 13.793C12.8892 13.9816 12.99 14.2342 12.9877 14.4964C12.9854 14.7586 12.8803 15.0094 12.6948 15.1948C12.5094 15.3803 12.2586 15.4854 11.9964 15.4877C11.7342 15.49 11.4816 15.3892 11.293 15.207L7.29303 11.207C7.10556 11.0195 7.00024 10.7652 7.00024 10.5C7.00024 10.2349 7.10556 9.98056 7.29303 9.79303L11.293 5.79303C11.4806 5.60556 11.7349 5.50024 12 5.50024C12.2652 5.50024 12.5195 5.60556 12.707 5.79303Z" fill="#6B7280"/>
</g>
</svg>
