<svg width="16" height="17" viewBox="0 0 16 17" fill="none" xmlns="http://www.w3.org/2000/svg">
<path fill-rule="evenodd" clip-rule="evenodd" d="M2.40002 2.89998C2.40002 2.6878 2.48431 2.48432 2.63434 2.33429C2.78437 2.18426 2.98785 2.09998 3.20002 2.09998H12.8C13.0122 2.09998 13.2157 2.18426 13.3657 2.33429C13.5157 2.48432 13.6 2.6878 13.6 2.89998V5.29998C13.6 5.51213 13.5157 5.71558 13.3656 5.86558L9.60003 9.63117V12.5C9.59998 12.7121 9.51566 12.9156 9.36562 13.0656L7.76562 14.6656C7.65374 14.7774 7.51121 14.8536 7.35605 14.8844C7.20089 14.9153 7.04006 14.8995 6.8939 14.8389C6.74774 14.7784 6.62281 14.6759 6.5349 14.5443C6.447 14.4128 6.40006 14.2582 6.40002 14.1V9.63117L2.63442 5.86558C2.48438 5.71558 2.40007 5.51213 2.40002 5.29998V2.89998Z" fill="#9CA3AF"/>
</svg>
