<svg width="10" height="11" viewBox="0 0 10 11" fill="none" xmlns="http://www.w3.org/2000/svg">
<path fill-rule="evenodd" clip-rule="evenodd" d="M0.100006 2.19998C0.100006 1.64302 0.321256 1.10888 0.715082 0.715051C1.10891 0.321225 1.64305 0.0999756 2.20001 0.0999756H9.20001C9.33 0.0999756 9.45744 0.136176 9.56802 0.20452C9.6786 0.272864 9.76797 0.370652 9.82611 0.486926C9.88424 0.6032 9.90885 0.733366 9.89718 0.86284C9.8855 0.992313 9.83801 1.11598 9.76001 1.21998L7.97501 3.59998L9.76001 5.97998C9.83801 6.08397 9.8855 6.20764 9.89718 6.33711C9.90885 6.46658 9.88424 6.59675 9.82611 6.71302C9.76797 6.8293 9.6786 6.92709 9.56802 6.99543C9.45744 7.06378 9.33 7.09998 9.20001 7.09998H2.20001C2.01435 7.09998 1.83631 7.17373 1.70503 7.305C1.57376 7.43628 1.50001 7.61432 1.50001 7.79998V9.89998C1.50001 10.0856 1.42626 10.2637 1.29498 10.395C1.16371 10.5262 0.985658 10.6 0.800006 10.6C0.614355 10.6 0.436307 10.5262 0.305031 10.395C0.173756 10.2637 0.100006 10.0856 0.100006 9.89998V2.19998Z" fill="#1C64F2"/>
</svg>
