<svg width="12" height="12" viewBox="0 0 12 12" fill="none" xmlns="http://www.w3.org/2000/svg">
<path fill-rule="evenodd" clip-rule="evenodd" d="M1.8581 5.46229H3.2203C3.2826 4.38009 3.4884 3.38329 3.8062 2.57969C3.29451 2.89323 2.85589 3.31272 2.51987 3.80994C2.18384 4.30716 1.95819 4.87057 1.8581 5.46229ZM6 0.562286C4.51479 0.562286 3.09041 1.15228 2.0402 2.20249C0.99 3.25269 0.400002 4.67707 0.400002 6.16229C0.400002 7.6475 0.99 9.07188 2.0402 10.1221C3.09041 11.1723 4.51479 11.7623 6 11.7623C7.48521 11.7623 8.9096 11.1723 9.9598 10.1221C11.01 9.07188 11.6 7.6475 11.6 6.16229C11.6 4.67707 11.01 3.25269 9.9598 2.20249C8.9096 1.15228 7.48521 0.562286 6 0.562286ZM6 1.96229C5.9468 1.96229 5.8376 1.98469 5.6745 2.14569C5.5079 2.30949 5.3266 2.58179 5.1586 2.97309C4.8863 3.60799 4.6875 4.47249 4.6224 5.46229H7.3776C7.3125 4.47249 7.1137 3.60799 6.8414 2.97309C6.6734 2.58109 6.4914 2.30949 6.3255 2.14569C6.1624 1.98469 6.0532 1.96229 6 1.96229ZM8.7797 5.46229C8.7174 4.38009 8.5116 3.38329 8.1938 2.57969C8.7055 2.89323 9.14411 3.31272 9.48014 3.80994C9.81617 4.30716 10.0418 4.87057 10.1419 5.46229H8.7797ZM7.3776 6.86229H4.6224C4.6875 7.85209 4.8863 8.71659 5.1586 9.35149C5.3266 9.74349 5.5086 10.0151 5.6745 10.1789C5.8376 10.3399 5.9468 10.3623 6 10.3623C6.0532 10.3623 6.1624 10.3399 6.3255 10.1789C6.4921 10.0151 6.6741 9.74279 6.8414 9.35149C7.1137 8.71659 7.3125 7.85209 7.3776 6.86229ZM8.1938 9.74489C8.5116 8.94199 8.7174 7.94449 8.7797 6.86229H10.1419C10.0418 7.454 9.81617 8.01742 9.48014 8.51463C9.14411 9.01185 8.7055 9.43134 8.1938 9.74489ZM3.8062 9.74489C3.4884 8.94129 3.2826 7.94449 3.221 6.86229H1.8581C1.95819 7.454 2.18384 8.01742 2.51987 8.51463C2.85589 9.01185 3.29451 9.43134 3.8062 9.74489Z" fill="white"/>
</svg>
