<svg width="23" height="21" viewBox="0 0 23 21" fill="none" xmlns="http://www.w3.org/2000/svg">
<path d="M1.76032 4.80177C2.01474 4.18394 2.38764 3.62255 2.85775 3.14968C3.32785 2.67681 3.88593 2.3017 4.50015 2.04578C5.11436 1.78986 5.77268 1.65814 6.4375 1.65814C7.10232 1.65814 7.76063 1.78986 8.37485 2.04578C8.98906 2.3017 9.54715 2.67681 10.0172 3.14968L11.5 4.64118L12.9827 3.14968C13.9322 2.19467 15.2198 1.65816 16.5625 1.65816C17.9052 1.65816 19.1928 2.19467 20.1422 3.14968C21.0917 4.10469 21.625 5.39997 21.625 6.75055C21.625 8.10114 21.0917 9.39641 20.1422 10.3514L11.5 19.0447L2.85775 10.3514C2.38764 9.87855 2.01474 9.31717 1.76032 8.69933C1.5059 8.08149 1.37495 7.4193 1.37495 6.75055C1.37495 6.08181 1.5059 5.41961 1.76032 4.80177Z" fill="white" stroke="#E02424" stroke-width="2" stroke-linecap="round" stroke-linejoin="round"/>
</svg>
