<svg width="14" height="13" viewBox="0 0 14 13" fill="none" xmlns="http://www.w3.org/2000/svg">
<path id="Vector" d="M1.39998 0.899994C1.1878 0.899994 0.984319 0.984279 0.83429 1.13431C0.684261 1.28434 0.599976 1.48782 0.599976 1.69999C0.599976 1.91217 0.684261 2.11565 0.83429 2.26568C0.984319 2.41571 1.1878 2.49999 1.39998 2.49999H10.2C10.4121 2.49999 10.6156 2.41571 10.7657 2.26568C10.9157 2.11565 11 1.91217 11 1.69999C11 1.48782 10.9157 1.28434 10.7657 1.13431C10.6156 0.984279 10.4121 0.899994 10.2 0.899994H1.39998ZM1.39998 4.09999C1.1878 4.09999 0.984319 4.18428 0.83429 4.33431C0.684261 4.48434 0.599976 4.68782 0.599976 4.89999C0.599976 5.11217 0.684261 5.31565 0.83429 5.46568C0.984319 5.61571 1.1878 5.69999 1.39998 5.69999H6.99998C7.21215 5.69999 7.41563 5.61571 7.56566 5.46568C7.71569 5.31565 7.79998 5.11217 7.79998 4.89999C7.79998 4.68782 7.71569 4.48434 7.56566 4.33431C7.41563 4.18428 7.21215 4.09999 6.99998 4.09999H1.39998ZM1.39998 7.29999C1.1878 7.29999 0.984319 7.38428 0.83429 7.53431C0.684261 7.68434 0.599976 7.88782 0.599976 8.09999C0.599976 8.31217 0.684261 8.51565 0.83429 8.66568C0.984319 8.81571 1.1878 8.89999 1.39998 8.89999H4.59998C4.81215 8.89999 5.01563 8.81571 5.16566 8.66568C5.31569 8.51565 5.39998 8.31217 5.39998 8.09999C5.39998 7.88782 5.31569 7.68434 5.16566 7.53431C5.01563 7.38428 4.81215 7.29999 4.59998 7.29999H1.39998ZM11 4.89999C11 4.68782 10.9157 4.48434 10.7657 4.33431C10.6156 4.18428 10.4121 4.09999 10.2 4.09999C9.9878 4.09999 9.78432 4.18428 9.63429 4.33431C9.48426 4.48434 9.39997 4.68782 9.39997 4.89999V9.36879L8.36557 8.33439C8.21469 8.18867 8.01261 8.10803 7.80285 8.10986C7.5931 8.11168 7.39245 8.19581 7.24412 8.34414C7.09579 8.49247 7.01166 8.69312 7.00984 8.90287C7.00801 9.11263 7.08865 9.31471 7.23438 9.46559L9.63438 11.8656C9.7844 12.0156 9.98784 12.0998 10.2 12.0998C10.4121 12.0998 10.6156 12.0156 10.7656 11.8656L13.1656 9.46559C13.3113 9.31471 13.3919 9.11263 13.3901 8.90287C13.3883 8.69312 13.3042 8.49247 13.1558 8.34414C13.0075 8.19581 12.8069 8.11168 12.5971 8.10986C12.3873 8.10803 12.1853 8.18867 12.0344 8.33439L11 9.36879V4.89999Z" fill="#1F2A37"/>
</svg>
