<svg width="18" height="19" viewBox="0 0 18 19" fill="none" xmlns="http://www.w3.org/2000/svg">
<g id="information-circle">
<path id="Vector" d="M15.7 9.49999C15.7 11.2769 14.9941 12.9811 13.7376 14.2376C12.4811 15.4941 10.7769 16.2 8.99999 16.2C7.22304 16.2 5.51887 15.4941 4.26237 14.2376C3.00588 12.9811 2.29999 11.2769 2.29999 9.49999C2.29999 7.72304 3.00588 6.01887 4.26237 4.76237C5.51887 3.50588 7.22304 2.79999 8.99999 2.79999C10.7769 2.79999 12.4811 3.50588 13.7376 4.76237C14.9941 6.01887 15.7 7.72304 15.7 9.49999ZM9.98994 6.88994C10.2525 6.62739 10.4 6.27129 10.4 5.89999C10.4 5.52868 10.2525 5.17259 9.98994 4.91004C9.72739 4.64749 9.37129 4.49999 8.99999 4.49999C8.62868 4.49999 8.27259 4.64749 8.01004 4.91004C7.74749 5.17259 7.59999 5.52868 7.59999 5.89999C7.59999 6.27129 7.74749 6.62739 8.01004 6.88994C8.27259 7.15249 8.62869 7.29999 8.99999 7.29999C9.37129 7.29999 9.72739 7.15249 9.98994 6.88994ZM8.09999 8.09999C7.72868 8.09999 7.37259 8.24749 7.11004 8.51004C6.84749 8.77259 6.69999 9.12868 6.69999 9.49999C6.69999 9.87129 6.84749 10.2274 7.11004 10.4899C7.25056 10.6305 7.41788 10.738 7.59999 10.8077V13.1C7.59999 13.4713 7.74749 13.8274 8.01004 14.0899C8.27259 14.3525 8.62868 14.5 8.99999 14.5H9.89999C10.2713 14.5 10.6274 14.3525 10.8899 14.0899C11.1525 13.8274 11.3 13.4713 11.3 13.1C11.3 12.7287 11.1525 12.3726 10.8899 12.11C10.7494 11.9695 10.5821 11.8619 10.4 11.7923V9.49999C10.4 9.12869 10.2525 8.77259 9.98994 8.51004C9.72739 8.24749 9.37129 8.09999 8.99999 8.09999H8.09999Z" fill="#9CA3AF" stroke="#9CA3AF"/>
</g>
</svg>
