<svg width="13" height="13" viewBox="0 0 13 13" fill="none" xmlns="http://www.w3.org/2000/svg">
<path d="M1.59999 0.700012C1.41434 0.700012 1.23629 0.773762 1.10502 0.905037C0.973744 1.03631 0.899994 1.21436 0.899994 1.40001C0.899994 1.58566 0.973744 1.76371 1.10502 1.89499C1.23629 2.02626 1.41434 2.10001 1.59999 2.10001H2.45399L2.66749 2.95541C2.66961 2.96526 2.67195 2.97506 2.67449 2.98481L3.62509 6.78581L2.99999 7.41021C2.11799 8.29221 2.74239 9.80001 3.98979 9.80001H9.99999C10.1856 9.80001 10.3637 9.72626 10.495 9.59499C10.6262 9.46371 10.7 9.28566 10.7 9.10001C10.7 8.91436 10.6262 8.73631 10.495 8.60504C10.3637 8.47376 10.1856 8.40001 9.99999 8.40001H3.98979L4.68979 7.70001H9.29999C9.42996 7.69994 9.55734 7.66369 9.66786 7.59533C9.77839 7.52696 9.8677 7.42917 9.92579 7.31291L12.0258 3.11291C12.0791 3.00622 12.1043 2.88767 12.0989 2.76852C12.0935 2.64936 12.0578 2.53356 11.9951 2.43209C11.9324 2.33062 11.8449 2.24685 11.7407 2.18873C11.6365 2.13062 11.5193 2.10008 11.4 2.10001H3.89599L3.67899 1.22991C3.64107 1.07854 3.55366 0.944178 3.43064 0.848171C3.30762 0.752164 3.15604 0.700016 2.99999 0.700012H1.59999ZM10.7 11.55C10.7 11.8285 10.5894 12.0956 10.3925 12.2925C10.1955 12.4894 9.92847 12.6 9.64999 12.6C9.37152 12.6 9.10445 12.4894 8.90753 12.2925C8.71062 12.0956 8.59999 11.8285 8.59999 11.55C8.59999 11.2715 8.71062 11.0045 8.90753 10.8076C9.10445 10.6106 9.37152 10.5 9.64999 10.5C9.92847 10.5 10.1955 10.6106 10.3925 10.8076C10.5894 11.0045 10.7 11.2715 10.7 11.55ZM4.04999 12.6C4.32847 12.6 4.59554 12.4894 4.79246 12.2925C4.98937 12.0956 5.09999 11.8285 5.09999 11.55C5.09999 11.2715 4.98937 11.0045 4.79246 10.8076C4.59554 10.6106 4.32847 10.5 4.04999 10.5C3.77152 10.5 3.50445 10.6106 3.30753 10.8076C3.11062 11.0045 2.99999 11.2715 2.99999 11.55C2.99999 11.8285 3.11062 12.0956 3.30753 12.2925C3.50445 12.4894 3.77152 12.6 4.04999 12.6Z" fill="#111928"/>
</svg>
