<svg width="18" height="18" viewBox="0 0 18 18" fill="none" xmlns="http://www.w3.org/2000/svg">
<g id="trending-down">
<path id="Vector" fill-rule="evenodd" clip-rule="evenodd" d="M10.8 11.7C10.5613 11.7 10.3324 11.7948 10.1636 11.9636C9.9948 12.1324 9.89998 12.3613 9.89998 12.6C9.89998 12.8387 9.9948 13.0676 10.1636 13.2364C10.3324 13.4052 10.5613 13.5 10.8 13.5H15.3C15.5387 13.5 15.7676 13.4052 15.9364 13.2364C16.1052 13.0676 16.2 12.8387 16.2 12.6V8.09999C16.2 7.86129 16.1052 7.63238 15.9364 7.46359C15.7676 7.29481 15.5387 7.19999 15.3 7.19999C15.0613 7.19999 14.8324 7.29481 14.6636 7.46359C14.4948 7.63238 14.4 7.86129 14.4 8.09999V10.4274L10.5363 6.56369C10.3675 6.39496 10.1386 6.30018 9.89998 6.30018C9.66133 6.30018 9.43245 6.39496 9.26368 6.56369L7.19998 8.62739L3.33628 4.76369C3.16653 4.59975 2.93919 4.50903 2.70321 4.51108C2.46724 4.51313 2.24151 4.60778 2.07464 4.77465C1.90777 4.94152 1.81312 5.16725 1.81107 5.40323C1.80902 5.6392 1.89973 5.86655 2.06368 6.03629L6.56368 10.5363C6.73245 10.705 6.96133 10.7998 7.19998 10.7998C7.43862 10.7998 7.6675 10.705 7.83628 10.5363L9.89998 8.47259L13.1274 11.7H10.8Z" fill="#6B7280"/>
</g>
</svg>
