<svg width="18" height="18" viewBox="0 0 18 18" fill="none" xmlns="http://www.w3.org/2000/svg">
<g id="trending-up">
<path id="Vector" fill-rule="evenodd" clip-rule="evenodd" d="M10.8 6.3C10.5613 6.3 10.3324 6.20518 10.1636 6.0364C9.9948 5.86761 9.89998 5.63869 9.89998 5.4C9.89998 5.16131 9.9948 4.93239 10.1636 4.7636C10.3324 4.59482 10.5613 4.5 10.8 4.5H15.3C15.5387 4.5 15.7676 4.59482 15.9364 4.7636C16.1052 4.93239 16.2 5.16131 16.2 5.4V9.9C16.2 10.1387 16.1052 10.3676 15.9364 10.5364C15.7676 10.7052 15.5387 10.8 15.3 10.8C15.0613 10.8 14.8324 10.7052 14.6636 10.5364C14.4948 10.3676 14.4 10.1387 14.4 9.9V7.5726L10.5363 11.4363C10.3675 11.605 10.1386 11.6998 9.89998 11.6998C9.66133 11.6998 9.43245 11.605 9.26368 11.4363L7.19998 9.3726L3.33628 13.2363C3.16653 13.4002 2.93919 13.491 2.70321 13.4889C2.46724 13.4869 2.24151 13.3922 2.07464 13.2253C1.90777 13.0585 1.81312 12.8327 1.81107 12.5968C1.80902 12.3608 1.89973 12.1334 2.06368 11.9637L6.56368 7.4637C6.73245 7.29498 6.96133 7.20019 7.19998 7.20019C7.43862 7.20019 7.6675 7.29498 7.83628 7.4637L9.89998 9.5274L13.1274 6.3H10.8Z" fill="#6B7280"/>
</g>
</svg>
