<svg width="14" height="10" viewBox="0 0 14 10" fill="none" xmlns="http://www.w3.org/2000/svg">
<path fill-rule="evenodd" clip-rule="evenodd" d="M3.535 0.574762C3.66623 0.706032 3.73995 0.884048 3.73995 1.06966C3.73995 1.25528 3.66623 1.43329 3.535 1.56456C3.07994 2.01958 2.71896 2.55977 2.47268 3.1543C2.22641 3.74883 2.09965 4.38604 2.09965 5.02956C2.09965 5.67308 2.22641 6.3103 2.47268 6.90483C2.71896 7.49936 3.07994 8.03955 3.535 8.49456C3.60186 8.55914 3.65518 8.63638 3.69187 8.72178C3.72856 8.80718 3.74787 8.89904 3.74868 8.99198C3.74948 9.08493 3.73177 9.1771 3.69658 9.26313C3.66138 9.34916 3.6094 9.42731 3.54368 9.49304C3.47795 9.55876 3.3998 9.61074 3.31377 9.64594C3.22774 9.68114 3.13556 9.69885 3.04262 9.69804C2.94967 9.69723 2.85782 9.67792 2.77242 9.64123C2.68701 9.60455 2.60977 9.55122 2.5452 9.48436C1.96018 8.89935 1.49612 8.20484 1.17951 7.44049C0.862902 6.67613 0.699945 5.8569 0.699945 5.02956C0.699945 4.20223 0.862902 3.383 1.17951 2.61864C1.49612 1.85428 1.96018 1.15977 2.5452 0.574762C2.67647 0.443533 2.85449 0.369812 3.0401 0.369812C3.22571 0.369812 3.40373 0.443533 3.535 0.574762ZM10.465 0.574762C10.5963 0.443533 10.7743 0.369812 10.9599 0.369812C11.1455 0.369812 11.3235 0.443533 11.4548 0.574762C12.0398 1.15977 12.5039 1.85428 12.8205 2.61864C13.1371 3.383 13.3001 4.20223 13.3001 5.02956C13.3001 5.8569 13.1371 6.67613 12.8205 7.44049C12.5039 8.20484 12.0398 8.89935 11.4548 9.48436C11.3902 9.55122 11.313 9.60455 11.2276 9.64123C11.1422 9.67792 11.0503 9.69723 10.9574 9.69804C10.8644 9.69885 10.7723 9.68114 10.6862 9.64594C10.6002 9.61074 10.522 9.55876 10.4563 9.49304C10.3906 9.42731 10.3386 9.34916 10.3034 9.26313C10.2682 9.1771 10.2505 9.08493 10.2513 8.99198C10.2521 8.89904 10.2714 8.80718 10.3081 8.72178C10.3448 8.63638 10.3981 8.55914 10.465 8.49456C10.9201 8.03955 11.281 7.49936 11.5273 6.90483C11.7736 6.3103 11.9004 5.67308 11.9004 5.02956C11.9004 4.38604 11.7736 3.74883 11.5273 3.1543C11.281 2.55977 10.9201 2.01958 10.465 1.56456C10.3338 1.43329 10.26 1.25528 10.26 1.06966C10.26 0.884048 10.3338 0.706032 10.465 0.574762ZM5.5153 2.55436C5.64653 2.68563 5.72025 2.86365 5.72025 3.04926C5.72025 3.23488 5.64653 3.41289 5.5153 3.54416C5.32026 3.73917 5.16554 3.97069 5.05999 4.2255C4.95443 4.4803 4.9001 4.75341 4.9001 5.02921C4.9001 5.30502 4.95443 5.57812 5.05999 5.83293C5.16554 6.08774 5.32026 6.31926 5.5153 6.51426C5.58029 6.5793 5.63184 6.6565 5.66699 6.74146C5.70215 6.82642 5.72022 6.91747 5.72019 7.00941C5.72016 7.10135 5.70202 7.19239 5.6668 7.27732C5.63159 7.36226 5.57999 7.43942 5.51495 7.50441C5.44991 7.5694 5.37271 7.62095 5.28775 7.6561C5.2028 7.69126 5.11175 7.70934 5.0198 7.7093C4.92786 7.70927 4.83682 7.69113 4.75189 7.65592C4.66696 7.6207 4.58979 7.5691 4.5248 7.50406C3.86865 6.84772 3.50005 5.95764 3.50005 5.02956C3.50005 4.10149 3.86865 3.21141 4.5248 2.55506C4.58981 2.48998 4.66701 2.43835 4.75199 2.40312C4.83697 2.36789 4.92806 2.34976 5.02005 2.34976C5.11204 2.34976 5.20313 2.36789 5.28811 2.40312C5.37309 2.43835 5.45029 2.48998 5.5153 2.55506V2.55436ZM8.4847 2.55436C8.54971 2.48928 8.62691 2.43765 8.71189 2.40242C8.79687 2.36719 8.88796 2.34906 8.97995 2.34906C9.07194 2.34906 9.16303 2.36719 9.24801 2.40242C9.33299 2.43765 9.41019 2.48928 9.4752 2.55436C9.8003 2.87938 10.0582 3.26526 10.2341 3.68996C10.4101 4.11466 10.5007 4.56986 10.5007 5.02956C10.5007 5.48927 10.4101 5.94447 10.2341 6.36917C10.0582 6.79387 9.8003 7.17975 9.4752 7.50476C9.34385 7.63611 9.1657 7.7099 8.97995 7.7099C8.7942 7.7099 8.61605 7.63611 8.4847 7.50476C8.35335 7.37341 8.27956 7.19527 8.27956 7.00951C8.27956 6.82376 8.35335 6.64561 8.4847 6.51426C8.87839 6.12045 9.09955 5.58641 9.09955 5.02956C9.09955 4.47272 8.87839 3.93867 8.4847 3.54486C8.41962 3.47985 8.36799 3.40265 8.33276 3.31767C8.29753 3.23269 8.2794 3.1416 8.2794 3.04961C8.2794 2.95762 8.29753 2.86653 8.33276 2.78155C8.36799 2.69658 8.41962 2.61937 8.4847 2.55436ZM7 4.32956C7.18565 4.32956 7.3637 4.40331 7.49497 4.53459C7.62625 4.66586 7.7 4.84391 7.7 5.02956V5.03656C7.7 5.22221 7.62625 5.40026 7.49497 5.53154C7.3637 5.66281 7.18565 5.73656 7 5.73656C6.81435 5.73656 6.6363 5.66281 6.50503 5.53154C6.37375 5.40026 6.3 5.22221 6.3 5.03656V5.02956C6.3 4.84391 6.37375 4.66586 6.50503 4.53459C6.6363 4.40331 6.81435 4.32956 7 4.32956Z" fill="#1C64F2"/>
</svg>
