<svg width="14" height="14" viewBox="0 0 14 14" fill="none" xmlns="http://www.w3.org/2000/svg">
<g id="fire">
<path id="Vector" fill-rule="evenodd" clip-rule="evenodd" d="M8.23 1.42377C8.4239 1.47487 8.5863 1.60716 8.6766 1.78706C9.0147 2.46396 9.2674 2.87488 9.5215 3.20808C9.7791 3.54548 10.0507 3.82126 10.4651 4.23496C11.4213 5.19186 11.9001 6.44697 11.9001 7.69997C11.9001 8.95297 11.4213 10.2081 10.4651 11.165C8.55129 13.0781 5.4489 13.0781 3.5351 11.165C2.5789 10.2081 2.1001 8.95297 2.1001 7.69997C2.1001 6.44697 2.5789 5.19186 3.5351 4.23496C3.7353 4.03476 4.0363 3.97526 4.2981 4.08376C4.5599 4.19156 4.73 4.44708 4.73 4.72988C4.73 5.51388 4.779 6.11098 5.0086 6.58768C5.1346 6.84948 5.3313 7.10569 5.6701 7.33459C5.7513 6.59189 5.8997 5.68678 6.0999 4.82858C6.2574 4.15238 6.45339 3.47757 6.68719 2.91477C6.80409 2.63267 6.9364 2.36525 7.0862 2.13355C7.2318 1.90815 7.4194 1.67929 7.6616 1.51759C7.8289 1.40629 8.0361 1.37197 8.23 1.42377ZM8.4848 10.5847C7.6651 11.4051 6.3351 11.4051 5.5154 10.5847C5.1052 10.1752 4.9001 9.63757 4.9001 9.09997C4.9001 9.09997 5.5154 9.44997 6.6501 9.44997C6.6501 8.74997 7.0001 6.64997 7.5251 6.29997C7.8751 6.99997 8.0753 7.20509 8.4848 7.61529C8.895 8.02479 9.1001 8.56237 9.1001 9.09997C9.1001 9.63757 8.895 10.1752 8.4848 10.5847Z" fill="#111928"/>
</g>
</svg>
