<svg width="27" height="27" viewBox="0 0 27 27" fill="none" xmlns="http://www.w3.org/2000/svg">
<g id="heart">
<path id="Vector" d="M3.76037 8.75019C4.01478 8.13598 4.38769 7.57789 4.85779 7.10779C5.32789 6.63769 5.88598 6.26478 6.50019 6.01037C7.11441 5.75595 7.77272 5.625 8.43754 5.625C9.10237 5.625 9.76068 5.75595 10.3749 6.01037C10.9891 6.26478 11.5472 6.63769 12.0173 7.10779L13.5 8.59054L14.9828 7.10779C15.9322 6.15839 17.2199 5.62501 18.5625 5.62501C19.9052 5.62501 21.1929 6.15839 22.1423 7.10779C23.0917 8.0572 23.6251 9.34488 23.6251 10.6875C23.6251 12.0302 23.0917 13.3179 22.1423 14.2673L13.5 22.9095L4.85779 14.2673C4.38769 13.7972 4.01478 13.2391 3.76037 12.6249C3.50595 12.0107 3.375 11.3524 3.375 10.6875C3.375 10.0227 3.50595 9.36441 3.76037 8.75019Z" fill="white" stroke="#E02424" stroke-width="2" stroke-linecap="round" stroke-linejoin="round"/>
</g>
</svg>
