<svg width="14" height="14" viewBox="0 0 14 14" fill="none" xmlns="http://www.w3.org/2000/svg">
<path fill-rule="evenodd" clip-rule="evenodd" d="M3.53501 2.54516C3.66624 2.67643 3.73996 2.85445 3.73996 3.04006C3.73996 3.22568 3.66624 3.40369 3.53501 3.53496C3.07995 3.98997 2.71897 4.53017 2.47269 5.1247C2.22641 5.71922 2.09965 6.35644 2.09965 6.99996C2.09965 7.64348 2.22641 8.2807 2.47269 8.87523C2.71897 9.46975 3.07995 10.0099 3.53501 10.465C3.60186 10.5295 3.65519 10.6068 3.69188 10.6922C3.72856 10.7776 3.74787 10.8694 3.74868 10.9624C3.74949 11.0553 3.73178 11.1475 3.69658 11.2335C3.66138 11.3196 3.60941 11.3977 3.54368 11.4634C3.47796 11.5292 3.3998 11.5811 3.31377 11.6163C3.22775 11.6515 3.13557 11.6692 3.04262 11.6684C2.94968 11.6676 2.85783 11.6483 2.77242 11.6116C2.68702 11.5749 2.60978 11.5216 2.54521 11.4548C1.96019 10.8698 1.49613 10.1752 1.17952 9.41088C0.862908 8.64653 0.699951 7.8273 0.699951 6.99996C0.699951 6.17263 0.862908 5.35339 1.17952 4.58904C1.49613 3.82468 1.96019 3.13017 2.54521 2.54516C2.67648 2.41393 2.85449 2.34021 3.04011 2.34021C3.22572 2.34021 3.40374 2.41393 3.53501 2.54516V2.54516ZM10.465 2.54516C10.5963 2.41393 10.7743 2.34021 10.9599 2.34021C11.1455 2.34021 11.3235 2.41393 11.4548 2.54516C12.0398 3.13017 12.5039 3.82468 12.8205 4.58904C13.1371 5.35339 13.3001 6.17263 13.3001 6.99996C13.3001 7.8273 13.1371 8.64653 12.8205 9.41088C12.5039 10.1752 12.0398 10.8698 11.4548 11.4548C11.3902 11.5216 11.313 11.5749 11.2276 11.6116C11.1422 11.6483 11.0503 11.6676 10.9574 11.6684C10.8644 11.6692 10.7723 11.6515 10.6862 11.6163C10.6002 11.5811 10.5221 11.5292 10.4563 11.4634C10.3906 11.3977 10.3386 11.3196 10.3034 11.2335C10.2682 11.1475 10.2505 11.0553 10.2513 10.9624C10.2521 10.8694 10.2714 10.7776 10.3081 10.6922C10.3448 10.6068 10.3981 10.5295 10.465 10.465C10.9201 10.0099 11.281 9.46975 11.5273 8.87523C11.7736 8.2807 11.9004 7.64348 11.9004 6.99996C11.9004 6.35644 11.7736 5.71922 11.5273 5.1247C11.281 4.53017 10.9201 3.98997 10.465 3.53496C10.3338 3.40369 10.2601 3.22568 10.2601 3.04006C10.2601 2.85445 10.3338 2.67643 10.465 2.54516V2.54516ZM5.51531 4.52476C5.64654 4.65603 5.72026 4.83405 5.72026 5.01966C5.72026 5.20528 5.64654 5.38329 5.51531 5.51456C5.32026 5.70957 5.16555 5.94109 5.05999 6.19589C4.95443 6.4507 4.9001 6.72381 4.9001 6.99961C4.9001 7.27542 4.95443 7.54852 5.05999 7.80333C5.16555 8.05814 5.32026 8.28965 5.51531 8.48466C5.5803 8.5497 5.63184 8.6269 5.667 8.71186C5.70215 8.79681 5.72023 8.88786 5.7202 8.97981C5.72016 9.07175 5.70202 9.16279 5.66681 9.24772C5.63159 9.33266 5.57999 9.40982 5.51496 9.47481C5.44992 9.5398 5.37272 9.59135 5.28776 9.6265C5.2028 9.66166 5.11175 9.67974 5.01981 9.6797C4.92786 9.67967 4.83683 9.66153 4.75189 9.62631C4.66696 9.5911 4.5898 9.5395 4.52481 9.47446C3.86866 8.81811 3.50005 7.92804 3.50005 6.99996C3.50005 6.07189 3.86866 5.18181 4.52481 4.52546C4.58982 4.46038 4.66702 4.40875 4.752 4.37352C4.83698 4.33829 4.92807 4.32016 5.02006 4.32016C5.11205 4.32016 5.20314 4.33829 5.28811 4.37352C5.37309 4.40875 5.45029 4.46038 5.51531 4.52546V4.52476ZM8.48471 4.52476C8.54972 4.45968 8.62692 4.40805 8.7119 4.37282C8.79688 4.33759 8.88796 4.31946 8.97996 4.31946C9.07195 4.31946 9.16304 4.33759 9.24801 4.37282C9.33299 4.40805 9.41019 4.45968 9.47521 4.52476C9.80031 4.84978 10.0582 5.23566 10.2341 5.66036C10.4101 6.08506 10.5007 6.54026 10.5007 6.99996C10.5007 7.45967 10.4101 7.91487 10.2341 8.33957C10.0582 8.76427 9.80031 9.15014 9.47521 9.47516C9.34386 9.60651 9.16571 9.6803 8.97996 9.6803C8.7942 9.6803 8.61605 9.60651 8.48471 9.47516C8.35336 9.34381 8.27957 9.16567 8.27957 8.97991C8.27957 8.79416 8.35336 8.61601 8.48471 8.48466C8.8784 8.09085 9.09956 7.55681 9.09956 6.99996C9.09956 6.44312 8.8784 5.90907 8.48471 5.51526C8.41962 5.45025 8.36799 5.37305 8.33276 5.28807C8.29754 5.20309 8.2794 5.112 8.2794 5.02001C8.2794 4.92802 8.29754 4.83693 8.33276 4.75195C8.36799 4.66697 8.41962 4.58977 8.48471 4.52476V4.52476ZM7.00001 6.29996C7.18566 6.29996 7.3637 6.37371 7.49498 6.50499C7.62626 6.63626 7.70001 6.81431 7.70001 6.99996V7.00696C7.70001 7.19261 7.62626 7.37066 7.49498 7.50194C7.3637 7.63321 7.18566 7.70696 7.00001 7.70696C6.81435 7.70696 6.63631 7.63321 6.50503 7.50194C6.37376 7.37066 6.30001 7.19261 6.30001 7.00696V6.99996C6.30001 6.81431 6.37376 6.63626 6.50503 6.50499C6.63631 6.37371 6.81435 6.29996 7.00001 6.29996V6.29996Z" fill="#1E429F"/>
</svg>
